<svg viewBox="0 0 121 75" xmlns="http://www.w3.org/2000/svg" xmlns:xlink="http://www.w3.org/1999/xlink"><style>:root&gt;svg{display:none}:root&gt;svg:target{display:block}</style><svg fill="none" viewBox="0 0 121 36" id="app-store" xmlns="http://www.w3.org/2000/svg"><g clip-path="url(#aclip0_0_64)"><path d="M0 4.8C0 2.149 2.141 0 4.783 0h111.434C118.859 0 121 2.149 121 4.8v26.4c0 2.651-2.141 4.8-4.783 4.8H4.783C2.14 36 0 33.851 0 31.2V4.8z" fill="#000"/><path fill-rule="evenodd" clip-rule="evenodd" d="M0 31.2V4.8C0 2.149 2.141 0 4.783 0h111.434C118.859 0 121 2.149 121 4.8v26.4c0 2.651-2.141 4.8-4.783 4.8H4.783C2.14 36 0 33.851 0 31.2zm.717 0V4.8c0-2.253 1.82-4.08 4.066-4.08h111.434a4.073 4.073 0 014.066 4.08v26.4c0 2.253-1.82 4.08-4.066 4.08H4.783A4.073 4.073 0 01.717 31.2z" fill="#fff" fill-opacity=".3"/><path d="M27.343 18.733c-.012-2.11.94-3.7 2.864-4.873-1.076-1.546-2.703-2.397-4.849-2.561-2.031-.161-4.254 1.188-5.068 1.188-.86 0-2.826-1.133-4.374-1.133-3.193.05-6.587 2.556-6.587 7.654 0 1.507.274 3.063.823 4.666.734 2.11 3.378 7.28 6.137 7.196 1.443-.034 2.463-1.027 4.34-1.027 1.822 0 2.765 1.027 4.375 1.027 2.783-.04 5.175-4.74 5.872-6.856-3.733-1.766-3.533-5.173-3.533-5.28zm-3.24-9.436c1.563-1.862 1.421-3.558 1.375-4.167-1.38.08-2.977.943-3.887 2.005-1.002 1.138-1.59 2.546-1.464 4.133 1.492.114 2.855-.656 3.976-1.97zM44.18 26.052h-1.583l-.867-2.748h-3.014l-.827 2.748h-1.541l2.986-9.355h1.845l3.001 9.355zm-2.712-3.901l-.784-2.443c-.083-.25-.238-.837-.468-1.762h-.028c-.09.398-.238.986-.44 1.762l-.77 2.443h2.49zm10.392.445c0 1.147-.307 2.054-.922 2.72-.55.592-1.234.888-2.05.888-.882 0-1.515-.32-1.9-.957h-.028V28.8h-1.486v-7.273c0-.722-.02-1.462-.055-2.22h1.307l.083 1.068h.027c.496-.805 1.248-1.207 2.258-1.207.789 0 1.448.314 1.975.943.528.63.792 1.458.792 2.485zm-1.514.055c0-.657-.146-1.198-.44-1.624-.321-.444-.753-.666-1.294-.666-.367 0-.7.123-.998.367a1.708 1.708 0 00-.584.965c-.046.186-.07.338-.07.457v1.125c0 .49.15.905.448 1.243.298.338.686.506 1.163.506.56 0 .995-.217 1.307-.652.312-.435.468-1.009.468-1.721zm9.209-.055c0 1.147-.307 2.054-.923 2.72-.55.592-1.233.888-2.05.888-.881 0-1.514-.32-1.899-.957h-.028V28.8H53.17v-7.273a46.4 46.4 0 00-.055-2.22h1.307l.083 1.068h.028c.495-.805 1.247-1.207 2.257-1.207.789 0 1.447.314 1.976.943.526.63.79 1.458.79 2.485zm-1.514.055c0-.657-.147-1.198-.44-1.624-.322-.444-.752-.666-1.294-.666-.368 0-.7.123-.998.367a1.706 1.706 0 00-.585.965 2.042 2.042 0 00-.069.457v1.125c0 .49.15.905.446 1.243.299.337.687.506 1.165.506.56 0 .995-.217 1.307-.652.312-.435.468-1.009.468-1.721zm10.117.777c0 .796-.274 1.444-.824 1.943-.604.546-1.445.82-2.527.82-.998 0-1.799-.195-2.404-.584l.344-1.249a4.049 4.049 0 002.149.598c.56 0 .995-.128 1.308-.383.312-.254.468-.596.468-1.022 0-.38-.129-.699-.386-.958-.256-.26-.683-.5-1.28-.724-1.624-.61-2.436-1.505-2.436-2.682 0-.77.285-1.4.854-1.89.568-.492 1.325-.737 2.271-.737.845 0 1.546.148 2.106.444l-.372 1.222c-.523-.287-1.114-.43-1.776-.43-.522 0-.93.13-1.224.389a1.115 1.115 0 00-.371.847c0 .37.141.675.426.916.247.222.697.462 1.35.721.798.324 1.384.703 1.761 1.138.376.433.563.975.563 1.621zm4.914-2.997h-1.638v3.275c0 .833.289 1.25.867 1.25.266 0 .486-.024.66-.07l.042 1.138c-.293.11-.679.165-1.156.165-.587 0-1.046-.18-1.377-.54-.33-.362-.496-.968-.496-1.82v-3.4h-.976v-1.124h.976V18.07l1.46-.444v1.679h1.638v1.126zm7.392 2.192c0 1.037-.294 1.888-.88 2.554-.616.685-1.434 1.027-2.452 1.027-.982 0-1.763-.328-2.346-.985-.583-.656-.874-1.485-.874-2.484 0-1.045.3-1.901.901-2.567.6-.666 1.41-1 2.429-1 .982 0 1.771.329 2.368.986.57.637.854 1.46.854 2.47zm-1.542.049c0-.622-.132-1.156-.398-1.6-.312-.54-.758-.808-1.335-.808-.597 0-1.051.27-1.363.807-.267.446-.398.988-.398 1.629 0 .622.131 1.156.398 1.6.322.538.77.807 1.35.807.567 0 1.013-.274 1.334-.821.274-.454.412-.993.412-1.614zm6.373-2.048a2.56 2.56 0 00-.468-.041c-.523 0-.927.199-1.212.597-.247.352-.371.796-.371 1.332v3.54h-1.486l.014-4.622c0-.777-.019-1.485-.056-2.123h1.295l.054 1.29h.041c.157-.443.405-.8.744-1.068.33-.241.688-.361 1.074-.361.137 0 .261.01.371.027v1.43zm6.647 1.736c0 .268-.017.495-.054.68H87.43c.017.666.233 1.176.647 1.527.376.314.862.472 1.459.472.66 0 1.262-.106 1.804-.32l.232 1.041c-.632.278-1.38.417-2.242.417-1.037 0-1.852-.308-2.444-.923-.592-.615-.888-1.441-.888-2.477 0-1.017.276-1.864.827-2.54.577-.721 1.357-1.082 2.339-1.082.964 0 1.694.36 2.19 1.082.392.573.59 1.282.59 2.123zm-1.417-.389c.01-.444-.087-.828-.288-1.152-.258-.417-.653-.625-1.185-.625-.486 0-.881.203-1.183.611a2.248 2.248 0 00-.44 1.166h3.096zM37.88 10.789h.766c.74 0 1.173.334 1.173.896v.008c0 .52-.456.862-1.15.862-.71 0-1.163-.281-1.223-.78l-.003-.03h-.819l.004.045c.056.893.848 1.5 2.04 1.5 1.155 0 2.007-.667 2.007-1.56v-.008c0-.727-.445-1.24-1.166-1.33v-.03A1.264 1.264 0 0040.51 9.12v-.007c0-.837-.74-1.414-1.823-1.414-1.129 0-1.865.558-1.92 1.473l-.005.053h.804l.003-.053c.064-.465.457-.738 1.092-.738.646 0 1.02.289 1.02.769v.007c0 .517-.415.874-1.058.874h-.743v.705zm5.5 2.482c.524 0 .976-.27 1.204-.694h.019v.623h.807v-2.72c0-.791-.61-1.301-1.57-1.301-.967 0-1.554.521-1.61 1.2l-.004.041h.763l.007-.034c.067-.315.355-.536.822-.536.5 0 .785.263.785.698v.296l-1.073.064c-.93.056-1.46.476-1.46 1.162v.008c0 .708.526 1.192 1.31 1.192zm-.496-1.211v-.008c0-.333.269-.547.755-.577l.964-.06v.307c0 .514-.434.9-1.002.9-.433 0-.717-.217-.717-.562zm6.824-2.16v-.645h-2.605V13.2h.807V9.9h1.798zm1.518 4.612h.807v-1.976h.018c.232.458.684.743 1.24.743.987 0 1.634-.792 1.634-2.048v-.004c0-1.26-.643-2.047-1.644-2.047-.56 0-.994.285-1.23.754h-.018v-.68h-.807v5.258zm1.845-1.93c-.609 0-1.042-.533-1.042-1.35v-.005c0-.82.43-1.353 1.042-1.353.636 0 1.032.513 1.032 1.353v.004c0 .833-.397 1.35-1.032 1.35zm3.749 1.934c.77 0 1.18-.315 1.472-1.132l1.465-4.13h-.852l-.99 3.21h-.026l-.99-3.21h-.875l1.431 3.95-.067.187c-.134.383-.344.484-.725.484-.108 0-.202-.015-.265-.03v.634c.097.018.265.037.422.037zm5.71-1.237c.964 0 1.603-.492 1.603-1.227v-.007c0-.461-.284-.776-.803-.881v-.03c.422-.098.695-.432.695-.855v-.008c0-.675-.553-1.091-1.457-1.091-.886 0-1.465.42-1.558 1.121l-.004.03h.77l.003-.026c.06-.3.355-.484.777-.484.426 0 .68.199.68.536v.008c0 .352-.242.532-.717.532h-.564v.59h.568c.545 0 .807.18.807.558v.007c0 .36-.306.582-.803.582-.445 0-.736-.173-.826-.492l-.011-.037h-.792l.003.034c.079.697.71 1.14 1.63 1.14zm3.155-.079h.796l1.804-2.771h.034v2.77h.803V9.256h-.796l-1.804 2.76h-.038v-2.76h-.799V13.2zm8.135-3.945h-3.27V9.9h1.23v3.3h.81V9.9h1.23v-.645zm3.035 4.024c.953 0 1.562-.57 1.685-1.197l.011-.04h-.77l-.01.03c-.101.295-.419.543-.897.543-.643 0-1.05-.435-1.065-1.181h2.784v-.274c0-1.185-.677-1.98-1.779-1.98-1.102 0-1.812.825-1.812 2.059v.003c0 1.245.699 2.037 1.853 2.037zm-.037-3.435c.527 0 .912.333.975 1.016H75.82c.075-.66.475-1.016.998-1.016zm5.707 3.356h1.809c.852 0 1.382-.443 1.382-1.133v-.007c0-.484-.336-.836-.844-.904v-.03c.377-.071.669-.442.669-.851v-.008c0-.626-.464-1.012-1.23-1.012h-1.786V13.2zm.8-2.318V9.855h.818c.389 0 .598.176.598.502v.008c0 .349-.224.517-.68.517h-.736zm0 1.718v-1.13h.766c.53 0 .796.176.796.555v.008c0 .375-.247.566-.703.566h-.859z" fill="#fff"/></g><defs><clipPath id="aclip0_0_64"><path fill="#fff" d="M0 0h121v36H0z"/></clipPath></defs></svg><svg fill="none" viewBox="0 0 13 13" id="arrow" xmlns="http://www.w3.org/2000/svg"><path stroke="#fff" d="M11.868 0v12M12 .5H0m11.722.485L.985 11.722"/></svg><svg fill="none" viewBox="0 0 121 36" id="google-play" xmlns="http://www.w3.org/2000/svg"><g clip-path="url(#cclip0_0_86)"><path d="M0 4.8C0 2.149 2.141 0 4.783 0h111.434C118.859 0 121 2.149 121 4.8v26.4c0 2.651-2.141 4.8-4.783 4.8H4.783C2.14 36 0 33.851 0 31.2V4.8z" fill="#000"/><path fill-rule="evenodd" clip-rule="evenodd" d="M0 31.2V4.8C0 2.149 2.141 0 4.783 0h111.434C118.859 0 121 2.149 121 4.8v26.4c0 2.651-2.141 4.8-4.783 4.8H4.783C2.14 36 0 33.851 0 31.2zm.717 0V4.8c0-2.253 1.82-4.08 4.066-4.08h111.434a4.073 4.073 0 014.066 4.08v26.4c0 2.253-1.82 4.08-4.066 4.08H4.783A4.073 4.073 0 01.717 31.2z" fill="#fff" fill-opacity=".3"/><path d="M61.31 19.558c-2.154 0-3.933 1.687-3.933 4.001 0 2.296 1.76 4.002 3.933 4.002 2.172 0 3.932-1.688 3.932-4.002s-1.76-4.001-3.932-4.001zm0 6.41c-1.18 0-2.21-1.005-2.21-2.427 0-1.44 1.03-2.427 2.21-2.427 1.179 0 2.209.986 2.209 2.427 0 1.422-1.03 2.428-2.21 2.428zm-8.558-6.41c-2.172 0-3.933 1.687-3.933 4.001 0 2.296 1.76 4.002 3.933 4.002 2.172 0 3.932-1.688 3.932-4.002s-1.76-4.001-3.932-4.001zm0 6.41c-1.18 0-2.21-1.005-2.21-2.427 0-1.44 1.03-2.427 2.21-2.427s2.21.986 2.21 2.427c0 1.422-1.013 2.428-2.21 2.428zm-10.168-5.177v1.687h3.97c-.113.948-.43 1.65-.9 2.125-.58.587-1.479 1.233-3.07 1.233-2.454 0-4.344-2.01-4.344-4.495 0-2.485 1.891-4.533 4.344-4.533 1.329 0 2.284.53 2.996 1.214l1.18-1.195c-.994-.967-2.323-1.707-4.176-1.707-3.353 0-6.162 2.788-6.162 6.183s2.81 6.183 6.162 6.183c1.816 0 3.165-.607 4.25-1.745 1.105-1.12 1.442-2.694 1.442-3.965a5.91 5.91 0 00-.093-1.062l-5.6.077zm41.608 1.308c-.318-.892-1.329-2.541-3.352-2.541-2.023 0-3.69 1.612-3.69 4.001 0 2.238 1.667 4.002 3.877 4.002 1.798 0 2.828-1.119 3.258-1.764l-1.328-.91c-.45.664-1.05 1.1-1.93 1.1-.88 0-1.497-.399-1.891-1.214l5.224-2.22-.168-.454zm-5.318 1.347c-.037-1.537 1.18-2.333 2.04-2.333.694 0 1.255.342 1.461.854l-3.5 1.48zm-4.251 3.85h1.723V15.575h-1.723v11.721zm-2.808-6.847h-.056c-.393-.474-1.123-.891-2.06-.891-1.966 0-3.745 1.764-3.745 4.001 0 2.238 1.797 3.983 3.745 3.983.936 0 1.666-.417 2.06-.91h.056v.569c0 1.537-.806 2.351-2.097 2.351-1.05 0-1.705-.777-1.967-1.422l-1.497.645c.43 1.062 1.573 2.37 3.463 2.37 2.023 0 3.727-1.213 3.727-4.153v-7.188h-1.63v.645zm-1.966 5.52c-1.18 0-2.172-1.006-2.172-2.409 0-1.402.993-2.427 2.172-2.427 1.161 0 2.097 1.025 2.097 2.427 0 1.384-.937 2.409-2.097 2.409zm22.377-10.394h-4.12v11.721h1.723v-4.438h2.397c1.91 0 3.782-1.404 3.782-3.642 0-2.237-1.872-3.641-3.782-3.641zm.055 5.652h-2.434v-4.021h2.434c1.274 0 2.023 1.08 2.023 2.01-.018.91-.748 2.011-2.023 2.011zm10.6-1.688c-1.236 0-2.528.55-3.052 1.802l1.517.645c.337-.645.936-.854 1.573-.854.899 0 1.798.55 1.816 1.517v.114c-.318-.19-.973-.456-1.797-.456-1.648 0-3.315.93-3.315 2.637 0 1.575 1.348 2.58 2.846 2.58 1.162 0 1.798-.532 2.191-1.157h.056v.91h1.666v-4.495c-.018-2.067-1.535-3.243-3.501-3.243zm-.206 6.41c-.562 0-1.349-.284-1.349-.985 0-.91.974-1.252 1.817-1.252.748 0 1.104.17 1.573.398a2.082 2.082 0 01-2.041 1.84zm9.718-6.144l-1.966 5.064h-.056l-2.04-5.064h-1.854l3.071 7.093-1.742 3.964h1.798l4.699-11.057h-1.91zm-15.43 7.491h1.724V15.575h-1.723v11.721zM41.629 10.081v1.74h-.717V10.8h-3.294v1.021h-.716v-1.74h.535c.179-.25.31-.612.395-1.082.085-.475.128-.99.128-1.546V5.99h3.14v4.092h.529zm-1.28 0V6.708h-1.646v.873c0 .502-.04.968-.12 1.398a3.89 3.89 0 01-.349 1.102h2.116zm4.321.826a2.48 2.48 0 01-1.266-.329 2.445 2.445 0 01-.898-.914 2.569 2.569 0 01-.321-1.27c0-.461.107-.882.321-1.263a2.445 2.445 0 012.163-1.25 2.443 2.443 0 012.156 1.25c.219.38.328.802.328 1.263 0 .462-.11.885-.328 1.27a2.39 2.39 0 01-.89.914c-.38.22-.802.33-1.266.33zm0-.719c.316 0 .606-.076.87-.228.263-.152.47-.363.622-.632.152-.273.228-.584.228-.934 0-.35-.076-.658-.228-.927a1.644 1.644 0 00-.623-.639 1.708 1.708 0 00-.87-.228 1.694 1.694 0 00-1.5.867 1.855 1.855 0 00-.228.927c0 .35.076.66.228.934a1.708 1.708 0 001.5.86zm5.538.719c-.465 0-.889-.11-1.272-.329a2.377 2.377 0 01-.904-.907 2.54 2.54 0 01-.328-1.277c0-.466.109-.891.328-1.277a2.38 2.38 0 01.904-.907c.383-.22.807-.33 1.272-.33.361 0 .69.068.984.202.299.135.563.33.79.585l-.535.518a1.612 1.612 0 00-.55-.437c-.2-.099-.43-.148-.69-.148-.32 0-.615.074-.883.222a1.641 1.641 0 00-.63.631 1.837 1.837 0 00-.234.941c0 .359.078.674.235.948.156.268.365.477.629.625.268.147.563.221.884.221.535 0 .99-.224 1.366-.672l.542.524a2.445 2.445 0 01-1.908.867zm3.716-4.199h-1.339v-.72h3.428v.72h-1.339V10.8h-.75V6.708zm3.331 4.2a.931.931 0 01-.422-.088v-.732a.85.85 0 00.402.12c.12 0 .216-.022.288-.066a.632.632 0 00.194-.27l.167-.349-1.593-3.534h.837l1.118 2.667h.04L59.41 5.99h.837l-1.835 4.045c-.134.3-.297.522-.489.665-.187.14-.41.209-.67.209zm3.643-4.919h3.569V10.8h-.75V6.708h-2.07V10.8h-.75V5.989zm4.662 0h.75v1.995h2.223V5.99h.743v4.81h-.743V8.697H66.31V10.8h-.75V5.989zm6.99 4.918a2.48 2.48 0 01-1.266-.329 2.446 2.446 0 01-.897-.914 2.569 2.569 0 01-.321-1.27c0-.461.107-.882.321-1.263a2.446 2.446 0 012.163-1.25 2.443 2.443 0 012.156 1.25c.219.38.328.802.328 1.263 0 .462-.11.885-.328 1.27a2.39 2.39 0 01-.89.914c-.38.22-.802.33-1.266.33zm0-.719c.317 0 .607-.076.87-.228.264-.152.471-.363.623-.632a1.89 1.89 0 00.228-.934c0-.35-.076-.658-.228-.927a1.641 1.641 0 00-.623-.639 1.706 1.706 0 00-.87-.228 1.694 1.694 0 00-1.5.867 1.855 1.855 0 00-.228.927c0 .35.077.66.228.934a1.708 1.708 0 001.5.86zm4.91-4.199h1.802c.254 0 .488.056.703.168.218.112.392.266.522.463s.194.415.194.652a1.104 1.104 0 01-.643 1.015v.04c.241.085.435.226.583.423.151.198.227.428.227.693 0 .264-.069.5-.207.705a1.374 1.374 0 01-.55.484 1.674 1.674 0 01-.75.168h-1.88V5.989zm1.768 2.016a.683.683 0 00.516-.202.638.638 0 00.006-.92.644.644 0 00-.495-.202H78.21v1.324h1.018zm.114 2.096a.706.706 0 00.542-.215.695.695 0 00-.007-.994c-.138-.144-.325-.215-.562-.215H78.21V10.1h1.132z" fill="#fff"/><path d="M25.513 21.86c2.865-1.594 5.037-2.808 5.225-2.902.598-.323 1.217-1.176 0-1.84-.394-.208-2.51-1.384-5.225-2.901l-3.763 3.85 3.763 3.793z" fill="#FFD900"/><path d="M21.75 18.067L9.765 30.3c.281.038.599-.038.973-.246.787-.436 9.12-5.045 14.775-8.193l-3.764-3.794z" fill="#F43249"/><path d="M21.75 18.066l3.763-3.83S11.581 6.534 10.738 6.08c-.317-.19-.673-.247-.991-.19L21.75 18.065z" fill="#00EE76"/><path d="M21.75 18.067L9.747 5.89c-.487.114-.9.55-.9 1.44v21.53c0 .816.32 1.403.918 1.46L21.75 18.066z" fill="#00D3FF"/></g><defs><clipPath id="cclip0_0_86"><path fill="#fff" d="M0 0h121v36H0z"/></clipPath></defs></svg><svg fill="none" viewBox="0 0 70 75" id="logo" xmlns="http://www.w3.org/2000/svg"><g clip-path="url(#dclip0_0_194)"><path d="M40.38 62.09c-.09 0-.134.045-.134.137v.138c0 .091.045.137.134.137h17.668c.134 0 .201-.046.201-.138v-.137c0-.092-.067-.137-.2-.137h-2.075c-1.383 0-2.365-.253-2.945-.757-.536-.504-.982-1.328-1.339-2.474a541.7 541.7 0 01-6.224-21.17 2426.591 2426.591 0 01-5.688-21.308c-.268-.963-.268-1.765 0-2.406.267-.642.892-.963 1.873-.963h4.016c.134 0 .2-.068.2-.206v-.068c0-.092-.066-.138-.2-.138h-26.77c-.179 0-.268.046-.268.138v.068c0 .138.089.207.268.207h4.952c.892 0 1.339.412 1.339 1.237 0 .366-.045.733-.134 1.1-.09.32-.246.801-.469 1.443a328.795 328.795 0 01-1.472 3.78 815.614 815.614 0 01-1.673 4.4 812.423 812.423 0 00-1.674 4.399 1098.03 1098.03 0 01-1.405 3.711 222.81 222.81 0 01-2.61 6.599 138.765 138.765 0 00-2.275 6.186 68.757 68.757 0 00-1.674 5.499c-.401 1.695-.602 3.253-.602 4.674 0 2.429.58 4.193 1.74 5.293 1.16 1.1 2.61 1.65 4.35 1.65 1.428 0 2.722-.39 3.882-1.17 1.16-.824 2.253-1.832 3.28-3.024a42.91 42.91 0 003.011-3.918 46.538 46.538 0 013.012-3.918c1.026-1.237 2.097-2.245 3.212-3.024 1.16-.825 2.41-1.237 3.748-1.237 2.142 0 3.793.641 4.953 1.925a12.016 12.016 0 012.543 4.399c.357 1.008.625 1.97.803 2.886.223.917.446 1.742.67 2.475.088.412.11.848.066 1.306 0 .458-.134.87-.401 1.237-.224.32-.625.596-1.205.825-.535.229-1.272.344-2.209.344H40.38zM22.577 34.183c2.544 0 4.395.596 5.555 1.787 1.16 1.146 1.74 3.025 1.74 5.636v7.149a46.15 46.15 0 00-2.877 2.337 54.351 54.351 0 01-2.744 2.268 19.508 19.508 0 01-2.61 1.718c-.848.413-1.696.62-2.544.62-1.249 0-2.387-.39-3.413-1.17-1.026-.824-1.54-2.176-1.54-4.055 0-1.145.18-2.451.536-3.918a87.247 87.247 0 011.339-4.536 145.25 145.25 0 011.606-4.33 239.6 239.6 0 001.338-3.506h3.614zm2.61-16.634c.536-1.375 1.205-2.268 2.008-2.68a6.823 6.823 0 012.677-.688v11.96c0 2.704-.557 4.651-1.673 5.843-1.115 1.19-2.99 1.787-5.622 1.787h-3.48l2.008-5.362c.67-1.833 1.294-3.505 1.874-5.017.58-1.513 1.049-2.796 1.405-3.85.402-1.054.67-1.718.804-1.993zM41.92 41.95c.09.32.179.71.268 1.169.09.458.134.893.134 1.306.044.412.022.802-.067 1.168-.045.32-.179.55-.402.688-.089.045-.245.068-.468.068-.446 0-.982-.091-1.606-.275-.58-.229-1.384-.343-2.41-.343-1.25 0-2.454.274-3.614.824a21.945 21.945 0 00-3.48 1.925v-6.873c0-2.658.535-4.56 1.606-5.706 1.116-1.145 2.99-1.718 5.622-1.718h2.342c.357 1.283.692 2.59 1.004 3.918l1.071 3.85zm-4.417-8.18c-2.543 0-4.395-.618-5.555-1.855-1.115-1.238-1.673-3.162-1.673-5.774v-11.96c1.562.046 2.722.39 3.48 1.031.759.642 1.294 1.512 1.606 2.612.491 1.741 1.116 4.01 1.874 6.805.759 2.795 1.584 5.842 2.477 9.142h-2.209z" fill="#212529"/></g><defs><clipPath id="dclip0_0_194"><path fill="#fff" d="M0 0h70v74.375H0z"/></clipPath></defs></svg><svg fill="none" viewBox="0 0 40 40" id="quotes" xmlns="http://www.w3.org/2000/svg"><path d="M16.638 5v12.318c0 9.507-6.218 15.95-14.971 17.682L.008 31.415c4.054-1.528 6.659-6.063 6.659-9.748H0V5h16.638zM40 5v12.318C40 26.825 33.753 33.27 25 35l-1.66-3.585c4.055-1.528 6.66-6.063 6.66-9.748h-6.638V5H40z" fill="#212529"/></svg></svg>